<svg width="400" height="400" viewBox="0 0 400 400" fill="none" xmlns="http://www.w3.org/2000/svg">
  <!-- Orange Sun -->
  <circle cx="260" cy="150" r="110" fill="#F5A962"/>
  
  <!-- White speed lines on sun -->
  <path d="M 180 120 Q 260 110 340 130" stroke="white" stroke-width="8" fill="none" opacity="0.8"/>
  <path d="M 150 160 Q 230 155 310 170" stroke="white" stroke-width="8" fill="none" opacity="0.8"/>
  
  <!-- Black Car Body -->
  <ellipse cx="260" cy="230" rx="140" ry="50" fill="#000000"/>
  
  <!-- Main car shape -->
  <path d="M 130 220 Q 140 200 170 195 L 220 190 Q 240 185 260 185 Q 280 185 300 190 L 350 195 Q 380 200 390 220 L 400 250 Q 395 270 380 275 L 130 275 Q 115 270 110 250 Z" fill="#000000" stroke="#FFFFFF" stroke-width="2"/>
  
  <!-- Car roof/cabin -->
  <path d="M 190 195 Q 195 170 220 165 L 300 165 Q 325 170 330 195" fill="#000000" stroke="#FFFFFF" stroke-width="2"/>
  
  <!-- Windshield -->
  <path d="M 220 170 Q 225 175 260 175 Q 295 175 300 170" stroke="#FFFFFF" stroke-width="1.5" fill="none" opacity="0.3"/>
  
  <!-- Hood lines -->
  <path d="M 130 230 Q 180 220 260 218 Q 340 220 390 230" stroke="#FFFFFF" stroke-width="3" fill="none"/>
  <path d="M 140 245 Q 190 238 260 237 Q 330 238 380 245" stroke="#FFFFFF" stroke-width="2" fill="none"/>
  
  <!-- Front wheel -->
  <circle cx="180" cy="275" r="32" fill="#000000" stroke="#FFFFFF" stroke-width="3"/>
  <circle cx="180" cy="275" r="20" fill="#FFFFFF"/>
  <circle cx="180" cy="275" r="10" fill="#000000"/>
  
  <!-- Rear wheel -->
  <circle cx="340" cy="275" r="32" fill="#000000" stroke="#FFFFFF" stroke-width="3"/>
  <circle cx="340" cy="275" r="20" fill="#FFFFFF"/>
  <circle cx="340" cy="275" r="10" fill="#000000"/>
  
  <!-- AUTOFLUX Text -->
  <text x="200" y="350" font-family="Arial, sans-serif" font-size="48" font-weight="bold" font-style="italic" fill="#000000" text-anchor="middle">AUTOFLUX</text>
</svg>
